# xmcd
#
# Track frame offsets: 
#        180
#        11628
#        21848
#        31025
#        38894
#        47743
#        58974
#        70853
#        81345
#        89559
#
# Disc length: 1313 seconds
#
# Revision: 0
# Processed by: cddbd v1.5.1PL0 Copyright (c) Steve Scherf et al.
# Submitted via: ExactAudioCopy v0.95a5
#
DISCID=80051f0a
DTITLE=Roger Miller - Good Old Country
DYEAR=2000
DGENRE=Country
TTITLE0=King of the Road
TTITLE1=Engine, Engine #9
TTITLE2=Chug-A-Lug
TTITLE3=Dang Me
TTITLE4=England Swings
TTITLE5=Husbands and Wives
TTITLE6=Walkin' in the Sunshine
TTITLE7=Kansas City Star
TTITLE8=Do-Wacka-Do
TTITLE9=You Can't Roller Skate in a Buffalo Herd
EXTD=
EXTT0=
EXTT1=
EXTT2=
EXTT3=
EXTT4=
EXTT5=
EXTT6=
EXTT7=
EXTT8=
EXTT9=
PLAYORDER=
